<svg width="50" height="50" viewBox="0 0 50 50" fill="none" xmlns="http://www.w3.org/2000/svg">
<g clip-path="url(#clip0)">
<path d="M20.7453 29.1457L20.5256 29.2335L21.1439 30.7809L21.3635 30.6926C23.6056 29.7961 26.3944 29.7957 28.6365 30.6926L28.8561 30.7804L29.4744 29.2331L29.2547 29.1456C26.6238 28.0925 23.3762 28.0929 20.7453 29.1457Z" fill="#E9CA77"/>
<path d="M24.1669 16.6782H25.833V25.8418H24.1669V16.6782Z" fill="#E9CA77"/>
<path d="M48.3254 0.0171122V15.3045C48.3254 15.5729 48.2823 15.8396 48.1976 16.0944L44.2358 27.9791L38.0546 37.654C37.8631 37.9565 37.5532 38.1644 37.2007 38.2268C36.4571 38.3428 35.7602 37.834 35.6442 37.0904C35.5996 36.8045 35.6471 36.5118 35.78 36.2547C37.229 33.6238 39.8932 28.7398 39.8932 28.7398C39.9243 28.6828 39.9488 28.6225 39.966 28.56L40.6399 26.0898L43.2885 17.7638L41.7005 17.2585L39.0459 25.6033L39.052 25.6051C39.0483 25.6167 39.0394 25.6248 39.0362 25.6364C38.8237 26.4161 38.0195 26.876 37.2398 26.6636C37.1857 26.649 37.1325 26.631 37.0805 26.6102C36.4257 26.3481 36.0509 25.6566 36.1888 24.9649L37.48 18.508C37.4905 18.454 37.4957 18.3992 37.4957 18.3442V15.904C37.4863 12.3514 38.8982 8.94271 41.4169 6.43742C41.5731 6.28122 41.661 6.06942 41.661 5.84845V0.0171122H39.9949V5.50878C39.4178 6.11826 38.8923 6.7746 38.424 7.47102C33.8231 0.056787 24.0831 -2.224 16.6689 2.37683C14.6016 3.65972 12.8584 5.40267 11.5753 7.46998C11.1072 6.77397 10.5819 6.11794 10.0051 5.50878V0.0171122H8.33903V5.84845C8.33903 6.06942 8.42692 6.28122 8.58312 6.43742C11.1019 8.94281 12.5139 12.3518 12.5043 15.9044V18.3442C12.5044 18.3991 12.5099 18.4538 12.5205 18.5077L13.8117 24.9646C13.95 25.6566 13.5752 26.3486 12.9201 26.6108C12.1694 26.9109 11.3176 26.5458 11.0175 25.7951C10.9968 25.7433 10.9791 25.6903 10.9644 25.6366C10.9612 25.6248 10.9522 25.6167 10.9486 25.6053L10.9546 25.6035L8.29998 17.2585L6.71199 17.7638L9.36056 26.0898L10.0344 28.56C10.0517 28.6225 10.0761 28.6828 10.1073 28.7398C10.1073 28.7398 12.7715 33.6235 14.2205 36.2547C14.5417 36.8372 14.3823 37.554 13.8006 37.9908C13.5144 38.2051 13.1519 38.2907 12.8 38.2271C12.4474 38.1649 12.1374 37.957 11.9461 37.6544L5.76491 27.9794L1.80314 16.095C1.71796 15.8401 1.67454 15.5732 1.67464 15.3045V0.0171122H0.00854537V15.3045C0.00833711 15.7522 0.0806041 16.197 0.222535 16.6215L4.2169 28.6043C4.23845 28.6694 4.26792 28.7317 4.30479 28.7895L10.5412 38.5513C10.9845 39.2426 11.6948 39.7189 12.5026 39.8664C12.6736 39.8975 12.8471 39.9132 13.0209 39.9132C13.6792 39.9095 14.3183 39.6913 14.8415 39.2916C14.8746 39.2668 14.9001 39.2362 14.932 39.2103C14.992 39.2783 15.0474 39.352 15.1084 39.4185C15.5885 39.9453 16.1107 40.4323 16.6695 40.8746V44.0353C16.6686 45.6903 16.4016 47.3344 15.8788 48.9046C15.7338 49.3412 15.9703 49.8127 16.407 49.9577C16.4917 49.9858 16.5803 50 16.6695 50H33.3305C33.7906 50.0001 34.1637 49.6272 34.1637 49.1671C34.1637 49.0779 34.1494 48.9892 34.1213 48.9046C33.5984 47.3344 33.3314 45.6903 33.3305 44.0353V40.8752C33.8873 40.4347 34.4075 39.9496 34.886 39.425C34.9506 39.3545 35.0075 39.2792 35.0705 39.2073C35.1154 39.2446 35.1526 39.2873 35.2 39.323C36.504 40.3014 38.3543 40.0374 39.3327 38.7334C39.3771 38.6743 39.4192 38.6136 39.4589 38.5513L45.6953 28.7895C45.7322 28.7317 45.7617 28.6694 45.7832 28.6043L49.7784 16.6211C49.9197 16.1966 49.9917 15.7519 49.9915 15.3045V0.0171122H48.3254ZM37.2617 9.51553C37.0459 9.25021 36.821 9.00321 36.5944 8.76048L37.0073 8.3476C37.1615 8.59543 37.3076 8.84962 37.4477 9.1089C37.3803 9.24198 37.3251 9.38058 37.2617 9.51553ZM36.0359 6.96266L35.4012 7.59786C34.7792 7.04992 34.1141 6.5529 33.4123 6.11149L34.3329 5.19107C34.9511 5.73078 35.521 6.3236 36.0359 6.96266ZM18.1102 5.27781L16.9983 4.16601C17.8136 3.60255 18.6862 3.12678 19.6015 2.7467L20.4138 4.3701C19.6224 4.60929 18.852 4.91284 18.1102 5.27781ZM22.0776 3.97097L21.197 2.21115C22.1669 1.94354 23.1625 1.78026 24.167 1.72382V3.71689C23.4654 3.75406 22.7673 3.83893 22.0774 3.97097H22.0776ZM25.8331 1.71205C26.8403 1.76912 27.8386 1.93323 28.8112 2.20147L27.9236 3.9717C27.2333 3.83976 26.5349 3.75459 25.8331 3.71699V1.71205ZM30.3994 2.74982C31.3166 3.12595 32.1914 3.59818 33.009 4.15872L31.8896 5.27792C31.1481 4.91294 30.3781 4.60919 29.587 4.36979L30.3994 2.74982ZM15.6781 5.2019L16.5876 6.11118C15.8854 6.55196 15.2203 7.04908 14.5987 7.59765L13.9727 6.97182C14.2886 6.57341 14.6257 6.1924 14.9828 5.83054C15.206 5.60843 15.4436 5.40725 15.6781 5.2019ZM12.9915 8.34666L13.4057 8.76079C13.1785 9.00467 12.953 9.25177 12.7385 9.51553C12.6754 9.3812 12.6204 9.24323 12.5532 9.11067C12.693 8.85201 12.8362 8.59564 12.9914 8.34687L12.9915 8.34666ZM32.2163 48.3339H17.7837C18.1496 46.9304 18.3351 45.4858 18.3356 44.0353V42.0375C18.7446 42.2738 19.1659 42.4885 19.5974 42.6808C23.0375 44.2094 26.9641 44.2094 30.4042 42.6808C30.8351 42.4886 31.2557 42.2742 31.6642 42.0383V44.0357C31.6648 45.4861 31.8503 46.9305 32.2163 48.3339ZM33.6522 38.3061C32.5604 39.5236 31.2228 40.4957 29.7276 41.1578C26.7169 42.4883 23.2851 42.4883 20.2744 41.1578C18.7761 40.4942 17.4358 39.5196 16.3427 38.2987C16.189 38.1314 16.0498 37.9558 15.906 37.7833C16.1553 37.0078 16.0735 36.1638 15.6797 35.4507C14.4765 33.2652 12.4328 29.5227 11.778 28.3231C13.4741 28.654 15.1173 27.5474 15.4484 25.8512C15.5266 25.4503 15.5256 25.0379 15.4454 24.6375L14.8812 21.8155C15.6177 21.8876 16.359 21.9371 17.1033 21.9371C18.4021 21.9382 19.6985 21.8273 20.9782 21.6056L20.6918 19.9647C18.658 20.3101 16.5847 20.3557 14.5376 20.1L14.1704 18.2616V16.8246C16.051 15.8205 18.3225 15.577 20.6297 16.1609L21.0398 14.546C18.6183 13.9316 16.2152 14.1046 14.1276 14.999C14.0565 13.7559 13.8311 12.5265 13.4568 11.339C13.8725 10.7426 14.3341 10.1796 14.8374 9.65517C14.8822 9.60509 14.9326 9.5551 14.9838 9.50304C15.0271 9.46034 15.0685 9.41713 15.1523 9.34351C16.0985 8.42164 17.1719 7.64003 18.3397 7.02253C19.4317 6.43336 20.5994 5.99705 21.8102 5.72579C23.9117 5.2347 26.0984 5.23543 28.1996 5.72787C29.4088 5.99965 30.5749 6.43627 31.6652 7.02545C32.8366 7.64576 33.9129 8.4308 34.8612 9.35673C34.9726 9.46087 35.0752 9.56385 35.1907 9.68704C35.684 10.2014 36.1361 10.7538 36.5429 11.3389C36.1685 12.5265 35.9431 13.756 35.8721 14.9992C33.7849 14.1051 31.3827 13.9328 28.9599 14.5462L29.37 16.1611C31.6772 15.5765 33.9494 15.8198 35.8293 16.8246V18.2616L35.446 20.1788C33.6758 20.3331 31.8932 20.261 30.1412 19.9644L29.8548 21.606C31.1196 21.8238 32.4006 21.9329 33.684 21.9318C34.1593 21.9318 34.6333 21.9135 35.1051 21.8839L34.5546 24.6377C34.2156 26.3326 35.3148 27.9813 37.0098 28.3203C37.4097 28.4002 37.8216 28.4013 38.222 28.3233C37.5671 29.5229 35.5242 33.2654 34.3203 35.4509C33.9269 36.1625 33.8464 37.0054 34.0982 37.7786C33.9521 37.9545 33.8113 38.1319 33.6518 38.3061H33.6522Z" fill="#E9CA77"/>
</g>
<defs>
<clipPath id="clip0">
<rect width="50" height="50" fill="white"/>
</clipPath>
</defs>
</svg>
