<svg width="50" height="50" viewBox="0 0 50 50" fill="none" xmlns="http://www.w3.org/2000/svg">
<g clip-path="url(#clip0)">
<path d="M49.8615 12.8017C50.0808 12.4689 50.0357 12.0283 49.7541 11.7464L46.7611 8.75248C42.5434 4.5356 36.5289 2.6491 30.6579 3.70198L2.79965 8.70288C1.43405 8.94797 0.354526 9.99799 0.0713243 11.3562C-0.211468 12.7144 0.359034 14.1083 1.51315 14.8784L1.62873 14.9554C2.39431 15.4632 3.33245 15.6415 4.23082 15.4497L30.4616 9.77831C34.7059 8.86067 39.1273 9.23199 43.1594 10.8443L48.8467 13.1198C49.2177 13.2689 49.6423 13.1357 49.8615 12.8017ZM43.7889 9.28568C39.445 7.54713 34.6805 7.14712 30.1075 8.1373L3.87918 13.8087C3.42343 13.9071 2.9476 13.8161 2.5603 13.5571L2.44554 13.48C1.86111 13.0903 1.57176 12.3849 1.71479 11.6972C1.85783 11.0095 2.40456 10.4779 3.09597 10.3541L30.955 5.35488C36.2846 4.39872 41.745 6.11104 45.5742 9.93938L45.6766 10.0427L43.7889 9.28568Z" fill="#E9CA77"/>
<path d="M39.9277 46.7534H44.9639C45.4274 46.7534 45.8033 46.3775 45.8033 45.914V14.8577C45.8037 14.5397 45.6237 14.2487 45.3393 14.1065L40.3032 11.5884C40.0429 11.4585 39.7339 11.4724 39.4864 11.6257C39.2388 11.7786 39.0884 12.0487 39.0884 12.3397V22.1017L36.4597 25.1694C35.0781 26.7833 33.3867 28.1039 31.4858 29.0522L31.3428 29.1236C29.1292 30.226 26.6898 30.8006 24.2168 30.8023H21.666C16.6499 30.8014 11.9269 28.4399 8.91697 24.4276L8.53582 23.9231C7.42309 22.4472 5.68372 21.5775 3.83533 21.5726V23.2513C5.15584 23.2546 6.39808 23.8759 7.19276 24.93L7.57392 25.4337C7.6772 25.5723 7.79154 25.6997 7.89892 25.8342L7.62924 26.3731C6.97268 27.6969 5.81282 28.7026 4.40952 29.1658L4.93985 30.7605C6.73989 30.1658 8.23212 28.885 9.0932 27.1965C9.78871 27.9121 10.544 28.567 11.351 29.1539C10.8199 31.1137 9.78584 32.9011 8.35139 34.3384L8.27967 34.4089L9.46329 35.5991L9.53624 35.5269C11.0535 34.0081 12.1814 32.1453 12.824 30.0973C13.6957 30.6006 14.6085 31.0285 15.5527 31.3765C15.4773 33.258 15.0072 35.1028 14.1728 36.7913L13.9957 37.1454L15.4982 37.8958L15.6745 37.5417C16.5507 35.781 17.0757 33.8667 17.22 31.9052C18.57 32.258 19.9569 32.4482 21.352 32.472L20.6295 38.2557L22.2947 38.4639L23.0426 32.4843H24.2176C24.7287 32.4843 25.2398 32.4543 25.7484 32.4097L26.5042 38.4639L28.1694 38.2557L27.414 32.1863C28.3415 32.015 29.2542 31.7703 30.1436 31.4543C30.5587 33.4876 31.3645 35.4208 32.5161 37.147L33.9129 36.2155C32.8641 34.645 32.1342 32.8835 31.7653 31.0314L31.719 30.7998C31.844 30.7412 31.9706 30.6867 32.0956 30.6252L32.2387 30.5539C32.9543 30.1879 33.6444 29.7736 34.3043 29.3141C34.8805 31.2408 36.1109 32.9056 37.7835 34.022L38.715 32.6252C37.2675 31.6617 36.2318 30.192 35.8117 28.5043L35.7396 28.2178C36.4552 27.6194 37.1224 26.9653 37.7347 26.2612L39.0884 24.6784V45.914C39.0884 46.3775 39.4642 46.7534 39.9277 46.7534ZM40.7671 45.0746V21.5726H44.1245V45.0746H40.7671ZM40.7671 18.2152H44.1245V19.8939H40.7671V18.2152ZM44.1245 15.3766V16.5365H40.7671V13.6979L44.1245 15.3766Z" fill="#E9CA77"/>
</g>
<defs>
<clipPath id="clip0">
<rect width="50" height="50" fill="white"/>
</clipPath>
</defs>
</svg>
