<svg width="71" height="35" viewBox="0 0 71 35" fill="none" xmlns="http://www.w3.org/2000/svg">
<path d="M69.7802 15.958C69.6369 15.7941 66.1967 11.8991 60.2989 7.9884C52.4178 2.76235 43.8424 0 35.4998 0C27.1575 0 18.5821 2.76235 10.7006 7.9884C4.80297 11.899 1.36282 15.7941 1.21935 15.958L0 17.3499L1.21951 18.742C1.36297 18.9058 4.80312 22.801 10.7008 26.7117C18.5822 31.9376 27.1576 34.7 35.4999 34.7C43.8424 34.7 52.4178 31.9376 60.2989 26.7117C66.1967 22.801 69.6369 18.9058 69.7802 18.742L71 17.3499L69.7802 15.958ZM35.4998 29.5045C28.0742 29.5045 22.0329 24.052 22.0329 17.3499C22.0329 16.2999 22.1812 15.2806 22.4599 14.308L19.3853 13.841C19.0841 14.9667 18.9243 16.1418 18.9243 17.3499C18.9243 21.6791 20.9732 25.5841 24.2407 28.3184C20.0346 26.9161 16.4579 24.9483 13.7586 23.1687C10.4143 20.9641 7.90801 18.7344 6.47913 17.3499C7.90863 15.965 10.4146 13.7356 13.7586 11.5312C16.4579 9.7515 20.0347 7.78372 24.2407 6.38129L26.3032 8.47968C28.7121 6.44386 31.9472 5.19532 35.4998 5.19532C42.9253 5.19532 48.9664 10.6478 48.9664 17.3499C48.9664 24.052 42.9253 29.5045 35.4998 29.5045ZM57.241 23.1687C54.5413 24.9483 50.9648 26.9161 46.7589 28.3184C50.0262 25.5842 52.0751 21.6792 52.0751 17.3498C52.0751 13.0203 50.0262 9.11545 46.7589 6.38115C50.965 7.78358 54.5413 9.75136 57.241 11.531C60.5852 13.7356 63.0915 15.9653 64.5204 17.3496C63.0909 18.7348 60.5849 20.9644 57.241 23.1687Z" fill="#E9CA77"/>
<path d="M26.93 14.9867C26.6773 15.7342 26.5404 16.5273 26.5404 17.3495C26.5404 21.8153 30.5516 25.4358 35.4997 25.4358C40.4477 25.4358 44.4589 21.8155 44.4589 17.3495C44.4589 12.8835 40.4477 9.26318 35.4997 9.26318C33.0896 9.26318 30.9035 10.1237 29.2931 11.5209L33.7123 16.0168L26.93 14.9867Z" fill="#E9CA77"/>
</svg>
