<svg width="50" height="50" viewBox="0 0 50 50" fill="none" xmlns="http://www.w3.org/2000/svg">
<g clip-path="url(#clip0)">
<path d="M41.4225 36.0442L39.1491 33.774C38.5981 31.1541 38.3273 28.483 38.3411 25.8057L38.3061 22.9061C38.3285 22.4848 38.3411 22.0684 38.3411 21.652C38.3411 21.0807 38.3155 20.5293 38.2712 19.9914C38.2163 18.2791 37.8153 16.5956 37.0919 15.0423C37.0403 14.9256 36.9821 14.8158 36.9256 14.7015C36.8813 14.6133 36.8362 14.5251 36.789 14.436C35.134 11.2257 32.186 9.21856 28.1054 8.56755C28.0672 8.56145 28.0306 8.55332 27.9924 8.54762C27.5968 8.48663 27.1877 8.44271 26.7713 8.40774C26.6883 8.40002 26.6123 8.38863 26.5306 8.38172C26.0377 8.34756 25.5347 8.32764 25.0167 8.32764C17.9214 8.32764 14.607 10.9691 13.0549 14.8093C12.3222 16.4212 11.8854 18.1518 11.7647 19.9182V19.9434C11.7216 20.496 11.6923 21.0632 11.6923 21.652C11.6923 22.04 11.7159 22.434 11.735 22.828C11.6923 24.1105 11.6923 25.4162 11.6923 26.7178C11.7 26.8138 12.4478 36.3704 8.60192 40.2171C8.42789 40.3911 8.34005 40.6334 8.36161 40.8786C8.38316 41.1238 8.51206 41.3467 8.71375 41.4878C8.82028 41.563 16.4458 46.7926 26.0353 46.7926C30.3187 46.8146 34.5306 45.6968 38.2394 43.5538L43.6301 48.9531C44.2437 49.5951 45.085 49.9709 45.9727 49.9997C46.6099 50.0079 47.2231 49.7586 47.674 49.3085C47.7013 49.2828 47.7261 49.2552 47.748 49.2251L49.2554 47.2448C49.7474 46.7471 50.0142 46.0701 49.993 45.3707C49.9723 44.6713 49.6661 44.0109 49.1456 43.5433L41.4225 36.0442ZM38.3411 35.3213L39.6618 36.642L36.6755 39.6283L35.3548 38.3075L38.3411 35.3213ZM32.2677 31.0565L30.0593 28.8481C30.5338 28.3285 31.0775 27.8767 31.6748 27.5046C32.8191 27.921 34.9783 31.4428 36.5133 34.793L34.8376 36.4696C31.6407 34.9264 28.1612 33.0153 27.5211 32.2984C27.8424 31.4729 28.3234 30.7194 28.9366 30.0806L31.0901 32.2341C31.417 32.5497 31.9363 32.5452 32.2575 32.224C32.5788 31.9027 32.5832 31.3835 32.2677 31.0565ZM36.8963 30.1912C36.9712 30.9219 37.0663 31.6392 37.181 32.3431C36.9854 31.9576 36.7756 31.5555 36.5499 31.144C36.6699 30.8292 36.7874 30.5129 36.8963 30.1912ZM14.2606 16.2484C14.3549 16.0032 14.4464 15.7551 14.5537 15.5278C14.568 15.4969 14.5855 15.4688 14.6005 15.4371C15.4439 13.6573 16.8597 12.2126 18.6221 11.333C18.666 11.3107 18.705 11.2867 18.7534 11.2647C18.9807 11.1533 19.2125 11.0541 19.4455 10.9601C19.5203 10.9301 19.5947 10.8983 19.6703 10.8703C19.885 10.7869 20.1034 10.7154 20.3226 10.647C20.4222 10.6161 20.5222 10.5861 20.6231 10.558C20.8264 10.5003 21.0293 10.447 21.2342 10.3994C21.3591 10.3705 21.4843 10.3445 21.61 10.3165C21.7958 10.2778 21.982 10.2412 22.1695 10.2115C22.3212 10.1863 22.4736 10.1672 22.6257 10.1473C22.7782 10.1274 22.9539 10.1022 23.1181 10.0855C23.3089 10.0664 23.4988 10.053 23.6886 10.0408C23.8151 10.0314 23.9432 10.02 24.0701 10.0131C24.3881 10.0013 24.7044 9.99319 25.0167 9.99319C25.4331 9.99319 25.8336 10.0107 26.2285 10.0355L26.3452 10.044C26.4216 10.0489 26.4976 10.0558 26.5741 10.0615C26.9006 10.0892 27.221 10.1229 27.5333 10.168L27.7541 10.1989C28.1404 10.2595 28.517 10.3323 28.8793 10.4206L28.8959 10.4246C30.7062 10.8264 32.3689 11.7254 33.697 13.0201C34.4671 13.8009 35.0954 14.7101 35.5528 15.7067C35.6545 15.934 35.7513 16.1691 35.8403 16.413C35.8737 16.5037 35.9086 16.5903 35.9396 16.6838C36.0343 16.9644 36.116 17.2665 36.1892 17.5666C36.225 17.7057 36.2608 17.8436 36.2925 17.9879C36.3551 18.2734 36.4084 18.5706 36.4592 18.8772C36.4735 18.9671 36.484 19.0614 36.4966 19.1537H33.8592L32.4283 16.2833C32.2718 16.0206 31.9887 15.8596 31.683 15.8596C31.3776 15.8596 31.0942 16.0206 30.9376 16.2833L29.499 19.1537H27.3337L25.8247 13.1226C25.7316 12.7522 25.3989 12.4923 25.0167 12.4923C24.6349 12.4923 24.3018 12.7522 24.2091 13.1226L22.7009 19.1537H20.5446C19.8253 17.5923 19.1523 15.5811 19.1442 15.5595C19.0376 15.2399 18.7489 15.0163 18.4131 14.9923C18.0772 14.9683 17.76 15.1492 17.6091 15.4505C17.0362 16.6558 16.5308 17.8919 16.0953 19.1537H13.6478C13.7653 18.1689 13.9702 17.1966 14.2606 16.2484ZM13.4843 20.8193H16.6889C17.0472 20.8189 17.3652 20.5895 17.4786 20.2496C17.4843 20.2337 17.8259 19.2127 18.2821 18.0627C18.572 18.8121 18.9217 19.6518 19.2747 20.3585C19.4158 20.6412 19.7045 20.8193 20.02 20.8193H23.3511C23.7334 20.8193 24.0664 20.559 24.1591 20.1882L25.0167 16.7579L25.8747 20.1882C25.967 20.559 26.3 20.8193 26.6822 20.8193H30.0133C30.3305 20.8209 30.6213 20.6424 30.7628 20.3585L31.6789 18.5173L32.595 20.3585C32.7369 20.6424 33.0273 20.8209 33.3444 20.8193H36.6158L36.6398 22.8622C36.5113 25.0417 36.1075 27.1964 35.4374 29.2743C34.3065 27.5258 33.0114 26.0192 31.8115 25.8261C31.4117 25.7626 30.8477 25.8757 29.462 27.1399C29.3091 27.2798 25.7189 30.5767 25.8511 32.533C25.8787 32.936 25.943 33.8037 31.4475 36.6452C29.9902 38.2876 27.8139 39.9731 25.0167 39.9731C19.6988 39.9731 13.7893 32.6448 13.3961 22.6938C13.4144 22.0534 13.4412 21.4272 13.4843 20.8193ZM10.4606 40.6217C12.5336 37.9428 13.1915 33.872 13.3713 30.8126C13.8832 32.2431 14.5277 33.6224 15.2958 34.9333C17.8743 39.257 21.3257 41.6386 25.0167 41.6386C27.9147 41.6386 30.653 40.1695 32.9699 37.4129L33.59 37.7171C33.2652 38.0424 33.2652 38.5694 33.59 38.8947L36.0884 41.393L37.0196 42.3258C25.479 48.6729 13.5876 42.4954 10.4606 40.6217ZM48.0363 46.1054C48.0095 46.1315 47.9847 46.1591 47.9623 46.1888L46.4631 48.1569C46.126 48.4492 45.4266 48.3826 44.8036 47.7677L37.8531 40.8059L40.8512 37.8078L47.979 44.7201C48.1905 44.8835 48.3194 45.132 48.3303 45.3995C48.3413 45.6667 48.234 45.9253 48.0363 46.1054Z" fill="#E9CA77"/>
<path d="M38.7575 0.832775C38.7575 0.372878 38.3846 0 37.9247 0C37.4648 0 37.0919 0.372878 37.0919 0.832775C37.0899 2.9017 35.4134 4.57782 33.3444 4.58026C32.8845 4.58026 32.5117 4.95314 32.5117 5.41304C32.5117 5.87293 32.8845 6.24581 33.3444 6.24581C35.4134 6.24825 37.0899 7.92437 37.0919 9.9933C37.0919 10.4532 37.4648 10.8261 37.9247 10.8261C38.3846 10.8261 38.7575 10.4532 38.7575 9.9933C38.7599 7.92437 40.4364 6.24825 42.505 6.24581C42.9649 6.24581 43.3377 5.87293 43.3377 5.41304C43.3377 4.95314 42.9649 4.58026 42.505 4.58026C40.4364 4.57782 38.7599 2.9017 38.7575 0.832775ZM37.9247 7.12169C37.4908 6.43123 36.9065 5.84732 36.216 5.41304C36.9065 4.97876 37.4908 4.39484 37.9247 3.70438C38.359 4.39484 38.9429 4.97876 39.6338 5.41304C38.9429 5.84732 38.359 6.43123 37.9247 7.12169Z" fill="#E9CA77"/>
<path d="M9.19397 29.5632C9.19397 29.1033 8.82109 28.7304 8.3612 28.7304C6.75135 28.7304 5.44648 27.4255 5.44648 25.8157C5.44648 25.3558 5.07361 24.9829 4.61371 24.9829C4.15381 24.9829 3.78093 25.3558 3.78093 25.8157C3.78093 27.4255 2.47606 28.7304 0.866222 28.7304C0.406326 28.7304 0.0334473 29.1033 0.0334473 29.5632C0.0334473 30.0231 0.406326 30.3959 0.866222 30.3959C2.47606 30.3959 3.78093 31.7008 3.78093 33.3106C3.78093 33.7705 4.15381 34.1434 4.61371 34.1434C5.07361 34.1434 5.44648 33.7705 5.44648 33.3106C5.44648 31.7008 6.75135 30.3959 8.3612 30.3959C8.82109 30.3959 9.19397 30.0231 9.19397 29.5632ZM4.61371 30.6859C4.30752 30.2496 3.92773 29.8698 3.49101 29.5632C3.92773 29.2566 4.30752 28.8768 4.61371 28.4405C4.92031 28.8768 5.3001 29.2566 5.73641 29.5632C5.3001 29.8698 4.92031 30.2496 4.61371 30.6859Z" fill="#E9CA77"/>
</g>
<defs>
<clipPath id="clip0">
<rect width="50" height="50" fill="white"/>
</clipPath>
</defs>
</svg>
