<svg width="25" height="25" viewBox="0 0 25 25" fill="none" xmlns="http://www.w3.org/2000/svg">
<path d="M19.7579 15.4864C19.2461 14.9534 18.6287 14.6685 17.9745 14.6685C17.3255 14.6685 16.7028 14.9482 16.1699 15.4811L14.5026 17.1432C14.3654 17.0693 14.2282 17.0007 14.0963 16.9321C13.9063 16.8371 13.7269 16.7474 13.5739 16.6524C12.0121 15.6605 10.5927 14.3678 9.23143 12.6951C8.57187 11.8615 8.12865 11.1597 7.80679 10.4474C8.23946 10.0516 8.64047 9.64008 9.03092 9.24435C9.17866 9.09661 9.3264 8.94359 9.47414 8.79585C10.5822 7.68781 10.5822 6.25262 9.47414 5.14457L8.03368 3.70411C7.87011 3.54054 7.70126 3.37169 7.54297 3.20285C7.22639 2.87571 6.89397 2.53802 6.551 2.22143C6.03919 1.7149 5.42713 1.4458 4.7834 1.4458C4.13968 1.4458 3.51706 1.7149 2.98942 2.22143C2.98414 2.22671 2.98414 2.22671 2.97887 2.23199L1.18488 4.0418C0.509502 4.71718 0.124323 5.5403 0.0399002 6.49534C-0.0867339 8.03605 0.367038 9.47124 0.715282 10.4104C1.57006 12.7162 2.84696 14.8532 4.75174 17.1432C7.06282 19.9027 9.84349 22.0819 13.0199 23.6173C14.2335 24.1925 15.8533 24.8731 17.6631 24.9892C17.774 24.9945 17.89 24.9997 17.9956 24.9997C19.2144 24.9997 20.238 24.5618 21.0401 23.6912C21.0453 23.6806 21.0559 23.6754 21.0612 23.6648C21.3355 23.3324 21.6521 23.0316 21.9845 22.7098C22.2114 22.4934 22.4436 22.2666 22.6705 22.0291C23.1928 21.4856 23.4672 20.8525 23.4672 20.2035C23.4672 19.5492 23.1876 18.9213 22.6546 18.3937L19.7579 15.4864ZM21.6468 21.0424C21.6416 21.0424 21.6416 21.0477 21.6468 21.0424C21.4411 21.264 21.23 21.4645 21.0031 21.6862C20.6602 22.0133 20.3119 22.3563 19.9848 22.7414C19.4519 23.3113 18.824 23.5804 18.0008 23.5804C17.9217 23.5804 17.8373 23.5804 17.7581 23.5751C16.191 23.4749 14.7347 22.8628 13.6425 22.3404C10.6561 20.8947 8.03368 18.8422 5.85452 16.2409C4.05526 14.0723 2.85223 12.0672 2.05549 9.91446C1.56479 8.60063 1.38539 7.577 1.46453 6.61142C1.5173 5.99408 1.75474 5.48226 2.19268 5.04432L3.99194 3.24506C4.25048 3.00234 4.52486 2.87043 4.79396 2.87043C5.12637 2.87043 5.39547 3.07094 5.56431 3.23978C5.56959 3.24506 5.57487 3.25034 5.58014 3.25561C5.902 3.55637 6.20804 3.86768 6.5299 4.20009C6.69347 4.36894 6.86231 4.53778 7.03116 4.71191L8.47162 6.15237C9.03092 6.71167 9.03092 7.22876 8.47162 7.78806C8.3186 7.94108 8.17087 8.09409 8.01785 8.24183C7.57463 8.6956 7.15252 9.11772 6.69347 9.52928C6.68291 9.53983 6.67236 9.54511 6.66709 9.55566C6.21331 10.0094 6.29774 10.4527 6.39271 10.7534C6.39799 10.7692 6.40326 10.7851 6.40854 10.8009C6.78317 11.7084 7.31081 12.5632 8.11282 13.5816L8.1181 13.5868C9.57439 15.3808 11.1098 16.7791 12.8036 17.8502C13.0199 17.9874 13.2415 18.0982 13.4526 18.2037C13.6425 18.2987 13.8219 18.3884 13.9749 18.4834C13.996 18.4939 14.0171 18.5097 14.0382 18.5203C14.2176 18.61 14.3865 18.6522 14.5606 18.6522C14.9986 18.6522 15.2729 18.3778 15.3626 18.2881L17.1672 16.4836C17.3466 16.3042 17.6315 16.0879 17.9639 16.0879C18.291 16.0879 18.5601 16.2936 18.7237 16.473C18.729 16.4783 18.729 16.4783 18.7343 16.4836L21.6416 19.3909C22.185 19.9291 22.185 20.4831 21.6468 21.0424Z" fill="#E9CA77"/>
<path d="M13.5106 5.94676C14.8931 6.17892 16.1489 6.83319 17.1514 7.83571C18.1539 8.83823 18.8029 10.094 19.0403 11.4764C19.0984 11.8247 19.3991 12.0674 19.7421 12.0674C19.7843 12.0674 19.8212 12.0621 19.8634 12.0569C20.2539 11.9935 20.5124 11.6242 20.4491 11.2337C20.1642 9.5611 19.3727 8.03622 18.1644 6.82792C16.9561 5.61962 15.4313 4.82815 13.7586 4.54323C13.3682 4.47991 13.0041 4.73846 12.9355 5.12363C12.8669 5.50881 13.1202 5.88344 13.5106 5.94676Z" fill="#E9CA77"/>
<path d="M24.971 11.028C24.5014 8.27374 23.2034 5.76744 21.2089 3.77295C19.2144 1.77846 16.7081 0.480461 13.9538 0.0108597C13.5687 -0.0577338 13.2046 0.206087 13.136 0.591266C13.0727 0.981721 13.3312 1.34579 13.7217 1.41439C16.1805 1.83122 18.423 2.99731 20.2064 4.77547C21.9898 6.5589 23.1506 8.80138 23.5675 11.2602C23.6255 11.6084 23.9263 11.8511 24.2692 11.8511C24.3115 11.8511 24.3484 11.8459 24.3906 11.8406C24.7758 11.7826 25.0396 11.4132 24.971 11.028Z" fill="#E9CA77"/>
</svg>
