<svg width="50" height="50" viewBox="0 0 50 50" fill="none" xmlns="http://www.w3.org/2000/svg">
<g clip-path="url(#clip0)">
<path d="M49.3475 0.651465C49.345 0.649121 49.3424 0.64707 49.3401 0.644727C48.9265 0.234863 48.3566 0 47.7748 0H47.7719C47.2691 0 46.7769 0.172852 46.3863 0.48623C41.069 4.7333 35.7321 9.11709 30.5232 13.5155C29.2566 14.585 27.9889 15.6628 26.7224 16.7466L12.2616 2.28604C10.8337 0.858301 8.51047 0.858496 7.08264 2.28604L0.21477 9.154C-0.0712646 9.44014 -0.0712646 9.90381 0.21477 10.1898C0.500806 10.4758 0.964575 10.4758 1.25051 10.1898L6.0469 5.39355L7.09504 6.4417L2.29875 11.238C2.01272 11.5241 2.01272 11.9878 2.29875 12.2738C2.44172 12.4168 2.62922 12.4883 2.81663 12.4883C3.00403 12.4883 3.19153 12.4168 3.3345 12.2738L8.13088 7.47754L9.17903 8.52568L4.38264 13.322C4.09661 13.6081 4.09661 14.0718 4.38264 14.3578C4.52561 14.5008 4.71311 14.5723 4.90051 14.5723C5.08791 14.5723 5.27541 14.5008 5.41838 14.3578L10.2148 9.56143L11.2629 10.6096L6.46663 15.4059C6.18059 15.692 6.18059 16.1557 6.46663 16.4417C6.60959 16.5847 6.79709 16.6562 6.9845 16.6562C7.1719 16.6562 7.3594 16.5847 7.50237 16.4417L12.2987 11.6454L13.3468 12.6936L8.55051 17.4898C8.26448 17.776 8.26448 18.2396 8.55051 18.5257C8.69348 18.6687 8.88098 18.7401 9.06838 18.7401C9.25579 18.7401 9.44329 18.6687 9.58626 18.5257L14.3825 13.7294L15.4307 14.7775L10.6344 19.5738C10.3484 19.86 10.3484 20.3236 10.6344 20.6097C10.7774 20.7526 10.9649 20.8241 11.1523 20.8241C11.3397 20.8241 11.5272 20.7526 11.6701 20.6097L16.4664 15.8134L17.5146 16.8615L12.7183 21.6578C12.4323 21.9439 12.4323 22.4076 12.7183 22.6937C12.8613 22.8366 13.0488 22.9081 13.2362 22.9081C13.4236 22.9081 13.6111 22.8366 13.754 22.6937L18.5503 17.8974L19.5986 18.9456L14.8023 23.7419C14.5162 24.028 14.5162 24.4917 14.8023 24.7777C14.9452 24.9207 15.1327 24.9922 15.3201 24.9922C15.5075 24.9922 15.695 24.9207 15.838 24.7777L20.6344 19.9813L21.7195 21.0664C19.4705 23.0249 17.2332 24.995 15.0211 26.9676C15.0201 26.9676 15.0201 26.9676 15.0201 26.9687C14.363 27.5531 13.6462 28.2264 12.9391 28.8641C12.5059 29.1774 12.5884 29.7283 12.8033 29.9433C12.8033 29.9433 12.8033 29.9442 12.8043 29.9442C13.5094 30.7978 13.899 31.8876 13.899 33.0145C13.899 34.3318 13.3922 35.5643 12.4714 36.4842C12.4621 36.4935 10.272 38.6837 10.2624 38.6932C7.07737 41.9524 1.46829 39.7283 1.46506 35.1123C1.46702 32.3099 3.7304 29.9952 6.58997 29.9932C8.14748 29.9941 9.60159 30.6875 10.5791 31.8936C10.8443 32.2203 11.3311 32.2557 11.6397 31.9756C11.6436 31.9727 11.6465 31.9697 11.6504 31.9658L11.6573 31.9599C12.0003 31.6515 11.9761 31.0957 11.5928 30.8212C10.3408 29.3642 8.51956 28.5283 6.59485 28.5283H6.58508C2.92317 28.5283 -0.0039795 31.5103 0.000317373 35.1123C-0.00290528 37.8266 1.65579 40.224 4.10959 41.2207C5.56663 41.8107 7.16272 41.8514 8.60452 41.3892C7.2303 45.6642 10.4286 50 14.874 50H14.8818C18.5142 50 21.4745 47.0594 21.4705 43.4121C21.4725 41.6787 20.8045 40.043 19.5926 38.8046C19.5933 38.8038 21.0881 37.1045 21.0881 37.1045C23.7268 34.1683 26.3368 31.2187 28.9153 28.2619L30.0188 29.3654L25.2225 34.1617C24.9365 34.4479 24.9365 34.9115 25.2225 35.1976C25.3656 35.3405 25.5531 35.412 25.7405 35.412C25.9279 35.412 26.1154 35.3405 26.2584 35.1976L31.0547 30.4013L32.1029 31.4494L27.3066 36.2457C27.0205 36.5318 27.0205 36.9955 27.3066 37.2815C27.4496 37.4245 27.6371 37.496 27.8245 37.496C28.0119 37.496 28.1994 37.4245 28.3425 37.2815L33.1388 32.4853L34.1868 33.5333L29.3906 38.3296C29.1045 38.6157 29.1045 39.0794 29.3906 39.3654C29.5336 39.5084 29.7211 39.5799 29.9085 39.5799C30.0959 39.5799 30.2834 39.5084 30.4265 39.3654L35.2228 34.5691L36.2708 35.6172L31.4745 40.4136C31.1885 40.6997 31.1885 41.1634 31.4745 41.4494C31.6176 41.5924 31.8051 41.6639 31.9925 41.6639C32.1799 41.6639 32.3674 41.5924 32.5105 41.4494L37.3068 36.653L38.3549 37.7012L33.5586 42.4975C33.2726 42.7836 33.2726 43.2473 33.5586 43.5333C33.7017 43.6763 33.8892 43.7478 34.0766 43.7478C34.264 43.7478 34.4515 43.6763 34.5946 43.5333L39.3908 38.737L40.4389 39.7851L35.6426 44.5813C35.3566 44.8675 35.3566 45.3312 35.6426 45.6172C35.7857 45.7602 35.9732 45.8316 36.1606 45.8316C36.348 45.8316 36.5355 45.7602 36.6785 45.6172L41.4748 40.8209L42.5229 41.8689L37.7266 46.6652C37.4406 46.9514 37.4406 47.415 37.7266 47.7011C37.8697 47.844 38.0572 47.9155 38.2446 47.9155C38.432 47.9155 38.6195 47.844 38.7625 47.7011L43.5588 42.9048L44.6069 43.9528L39.8106 48.7491C39.5245 49.0353 39.5245 49.4989 39.8106 49.785C39.9536 49.9279 40.1411 49.9994 40.3285 49.9994C40.5159 49.9994 40.7034 49.9279 40.8465 49.785L46.16 44.4714C46.1602 44.4712 46.1605 44.4709 46.1608 44.4707C46.1611 44.4705 46.1613 44.4702 46.1615 44.4699L47.7144 42.917C48.4061 42.2253 48.787 41.3057 48.787 40.3274C48.787 39.3492 48.4061 38.4296 47.7145 37.7379L33.2377 23.2622C38.8533 16.7112 44.2973 10.1404 49.5134 3.6123C50.2212 2.72646 50.1497 1.45361 49.3475 0.651465ZM7.08274 4.35772L8.11848 3.32197C8.97512 2.46533 10.3692 2.46533 11.2259 3.32197L25.6075 17.7037C24.6797 18.5008 23.7527 19.3 22.8275 20.1026L7.08274 4.35772ZM46.6783 38.7744C47.0934 39.1894 47.322 39.7411 47.322 40.328C47.322 40.9149 47.0934 41.4667 46.6783 41.8816L45.6426 42.9174C45.1586 42.4336 30.9185 28.1934 29.8793 27.1543C30.683 26.2292 31.484 25.3035 32.2811 24.3772L46.6783 38.7744ZM20.4061 35.6703C20.0511 35.3985 19.1046 34.928 18.9472 33.5917C18.9032 33.2227 18.5917 32.9452 18.2216 32.9452C17.7791 32.9452 17.4419 33.3295 17.4921 33.7637C17.4931 33.7637 17.4931 33.7637 17.4931 33.7637C17.6327 34.9579 18.2812 36.0137 19.2714 36.6591C19.3232 36.6934 19.3749 36.7284 19.4286 36.7675C18.9206 37.3471 18.5013 37.8351 18.0204 38.3661C17.8866 38.5145 17.8183 38.7146 17.8339 38.9139C17.8486 39.1131 17.9472 39.3006 18.1025 39.4266C19.3317 40.43 20.0046 41.8741 20.0058 43.412C20.0037 46.2347 17.7298 48.5331 14.8789 48.5351C12.0612 48.5313 9.75208 46.2604 9.75208 43.412C9.7554 41.0939 11.2215 39.8525 11.3341 39.6933L13.507 37.5204C14.704 36.3233 15.3643 34.7038 15.3643 33.0145C15.3653 31.7801 15.0117 30.5877 14.3439 29.5683C14.9173 29.0438 15.416 28.5785 15.9952 28.0623L15.9982 28.0584C31.8784 13.899 47.1135 1.72744 47.3998 1.56348C47.2034 1.75986 18.6269 30.3241 18.495 30.4727C18.2265 30.7754 18.2548 31.2393 18.5566 31.5068C18.8599 31.777 19.3244 31.7453 19.5907 31.4453C19.6783 31.3455 48.2264 2.80791 48.4357 2.59863C48.3758 2.704 36.5804 17.6444 20.4061 35.6703Z" fill="#E9CA77"/>
<path d="M9.18222 32.5272C6.87197 30.217 2.93007 31.8817 2.93027 35.1162C2.93027 36.0938 3.31142 37.0132 4.00351 37.7052C4.71747 38.4191 5.65497 38.7758 6.59287 38.7758C7.53046 38.7758 8.46835 38.4189 9.18222 37.7052C10.6116 36.2761 10.6118 33.9564 9.18222 32.5272ZM8.14658 36.6693C7.28984 37.5256 5.89589 37.5258 5.03915 36.6693C3.66708 35.2973 4.62783 32.9206 6.59287 32.9206C8.56357 32.9207 9.5124 35.3037 8.14658 36.6693Z" fill="#E9CA77"/>
<path d="M14.879 39.7515C13.3731 39.7515 12.0794 40.6161 11.5028 42.0081C10.9234 43.4069 11.225 44.9373 12.2898 46.0019C12.997 46.7089 13.908 47.0796 14.8488 47.0796C15.3241 47.0796 15.8071 46.9849 16.2749 46.7911C17.6727 46.212 18.541 44.9175 18.541 43.4127C18.5409 41.3939 16.8982 39.7515 14.879 39.7515ZM15.7142 45.4379C15.0589 45.7092 14.0873 45.7278 13.3253 44.966C12.5629 44.2037 12.5831 43.2278 12.8561 42.5687C13.1269 41.9148 13.8005 41.2162 14.8789 41.2162C16.0904 41.2162 17.0761 42.2016 17.0761 43.4127C17.0761 44.4898 16.3726 45.1651 15.7142 45.4379Z" fill="#E9CA77"/>
</g>
<defs>
<clipPath id="clip0">
<rect width="50" height="50" fill="white"/>
</clipPath>
</defs>
</svg>
